MutatorSansInstance_1000-100.ufo
<glyph name="comma" format="2">
  <advance width="256"/>
  <unicode hex="002C"/>
  <outline>
    <contour>
      <point x="223" y="0" type="line"/>
      <point x="223" y="300" type="line"/>
      <point x="33" y="300" type="line"/>
      <point x="33" y="0" type="line"/>
      <point x="112" y="-16" type="line"/>
      <point x="104" y="12" type="line"/>
      <point x="82" y="-143" type="line"/>
      <point x="154" y="-145" type="line"/>
    </contour>
  </outline>
</glyph>
<glyph name="period" format="2">
  <advance width="256"/>
  <unicode hex="002E"/>
  <outline>
    <contour>
      <point x="33" y="0" type="line"/>
      <point x="223" y="0" type="line"/>
      <point x="223" y="300" type="line"/>
      <point x="33" y="300" type="line"/>
    </contour>
  </outline>
</glyph>
<glyph name="A" format="2">
  <advance width="795"/>
  <unicode hex="0041"/>
  <outline>
    <contour>
      <point x="11" y="0" type="line"/>
      <point x="260" y="0" type="line"/>
      <point x="365" y="800" type="line"/>
      <point x="148" y="800" type="line"/>
    </contour>
    <contour>
      <point x="120" y="120" type="line"/>
      <point x="616" y="120" type="line"/>
      <point x="616" y="331" type="line"/>
      <point x="120" y="331" type="line"/>
    </contour>
    <contour>
      <point x="431" y="0" type="line"/>
      <point x="784" y="0" type="line"/>
      <point x="646" y="800" type="line"/>
      <point x="313" y="800" type="line"/>
    </contour>
    <contour>
      <point x="225" y="540" type="line"/>
      <point x="510" y="540" type="line"/>
      <point x="510" y="800" type="line"/>
      <point x="225" y="800" type="line"/>
    </contour>
  </outline>
</glyph>
<glyph name="B" format="2">
  <advance width="769"/>
  <unicode hex="0042"/>
  <outline>
    <contour>
      <point x="33" y="0" type="line"/>
      <point x="354" y="0" type="line"/>
      <point x="354" y="800" type="line"/>
      <point x="33" y="800" type="line"/>
    </contour>
    <contour>
      <point x="297" y="346" type="line"/>
      <point x="389" y="346" type="line" smooth="yes"/>
      <point x="419" y="346"/>
      <point x="443" y="339"/>
      <point x="443" y="291" type="curve" smooth="yes"/>
      <point x="443" y="249"/>
      <point x="419" y="238"/>
      <point x="389" y="238" type="curve" smooth="yes"/>
      <point x="297" y="238" type="line"/>
      <point x="297" y="0" type="line"/>
      <point x="452" y="0" type="line" smooth="yes"/>
      <point x="707" y="0"/>
      <point x="758" y="94"/>
      <point x="758" y="230" type="curve" smooth="yes"/>
      <point x="758" y="356"/>
      <point x="701" y="417"/>
      <point x="607" y="434" type="curve"/>
      <point x="595" y="377" type="line"/>
      <point x="672" y="392"/>
      <point x="746" y="444"/>
      <point x="746" y="563" type="curve" smooth="yes"/>
      <point x="746" y="711"/>
      <point x="675" y="800"/>
      <point x="436" y="800" type="curve" smooth="yes"/>
      <point x="297" y="800" type="line"/>
      <point x="297" y="574" type="line"/>
      <point x="385" y="574" type="line" smooth="yes"/>
      <point x="416" y="574"/>
      <point x="440" y="564"/>
      <point x="440" y="524" type="curve" smooth="yes"/>
      <point x="440" y="475"/>
      <point x="416" y="471"/>
      <point x="385" y="471" type="curve" smooth="yes"/>
      <point x="297" y="471" type="line"/>
    </contour>
  </outline>
</glyph>
<glyph name="C" format="2">
  <advance width="877"/>
  <unicode hex="0043"/>
  <outline>
    <contour>
      <point x="551" y="376" type="line"/>
      <point x="548" y="284"/>
      <point x="520" y="254"/>
      <point x="457" y="254" type="curve" smooth="yes"/>
      <point x="441" y="254" type="line" smooth="yes"/>
      <point x="380" y="254"/>
      <point x="355" y="298"/>
      <point x="355" y="403" type="curve" smooth="yes"/>
      <point x="355" y="504"/>
      <point x="380" y="546"/>
      <point x="441" y="546" type="curve" smooth="yes"/>
      <point x="457" y="546" type="line" smooth="yes"/>
      <point x="520" y="546"/>
      <point x="548" y="518"/>
      <point x="551" y="430" type="curve"/>
      <point x="855" y="460" type="line"/>
      <point x="834" y="697"/>
      <point x="690" y="810"/>
      <point x="470" y="810" type="curve" smooth="yes"/>
      <point x="427" y="810" type="line" smooth="yes"/>
      <point x="178" y="810"/>
      <point x="22" y="679"/>
      <point x="22" y="403" type="curve" smooth="yes"/>
      <point x="22" y="124"/>
      <point x="178" y="-10"/>
      <point x="427" y="-10" type="curve" smooth="yes"/>
      <point x="470" y="-10" type="line" smooth="yes"/>
      <point x="690" y="-10"/>
      <point x="835" y="106"/>
      <point x="855" y="347" type="curve"/>
    </contour>
  </outline>
</glyph>
<glyph name="D" format="2">
  <advance width="809"/>
  <unicode hex="0044"/>
  <outline>
    <contour>
      <point x="33" y="0" type="line"/>
      <point x="335" y="0" type="line"/>
      <point x="335" y="800" type="line"/>
      <point x="33" y="800" type="line"/>
    </contour>
    <contour>
      <point x="280" y="546" type="line"/>
      <point x="368" y="546" type="line" smooth="yes"/>
      <point x="429" y="546"/>
      <point x="454" y="504"/>
      <point x="454" y="403" type="curve" smooth="yes"/>
      <point x="454" y="298"/>
      <point x="429" y="254"/>
      <point x="368" y="254" type="curve" smooth="yes"/>
      <point x="272" y="254" type="line"/>
      <point x="272" y="0" type="line"/>
      <point x="381" y="0" type="line" smooth="yes"/>
      <point x="630" y="0"/>
      <point x="787" y="130"/>
      <point x="787" y="403" type="curve" smooth="yes"/>
      <point x="787" y="673"/>
      <point x="630" y="800"/>
      <point x="381" y="800" type="curve" smooth="yes"/>
      <point x="280" y="800" type="line"/>
    </contour>
  </outline>
</glyph>
<glyph name="E" format="2">
  <advance width="661"/>
  <unicode hex="0045"/>
  <anchor x="339" y="841" name="top"/>
  <outline>
    <contour>
      <point x="42" y="0" type="line"/>
      <point x="345" y="0" type="line"/>
      <point x="345" y="800" type="line"/>
      <point x="42" y="800" type="line"/>
    </contour>
    <contour>
      <point x="132" y="530" type="line"/>
      <point x="628" y="530" type="line"/>
      <point x="628" y="800" type="line"/>
      <point x="132" y="800" type="line"/>
    </contour>
    <contour>
      <point x="132" y="0" type="line"/>
      <point x="628" y="0" type="line"/>
      <point x="628" y="270" type="line"/>
      <point x="132" y="270" type="line"/>
    </contour>
    <contour>
      <point x="132" y="315" type="line"/>
      <point x="576" y="315" type="line"/>
      <point x="576" y="485" type="line"/>
      <point x="132" y="485" type="line"/>
    </contour>
  </outline>
</glyph>
<glyph name="F" format="2">
  <advance width="625"/>
  <unicode hex="0046"/>
  <outline>
    <contour>
      <point x="33" y="0" type="line"/>
      <point x="363" y="0" type="line"/>
      <point x="363" y="800" type="line"/>
      <point x="33" y="800" type="line"/>
    </contour>
    <contour>
      <point x="132" y="548" type="line"/>
      <point x="592" y="548" type="line"/>
      <point x="592" y="800" type="line"/>
      <point x="132" y="800" type="line"/>
    </contour>
    <contour>
      <point x="132" y="271" type="line"/>
      <point x="568" y="271" type="line"/>
      <point x="568" y="483" type="line"/>
      <point x="132" y="483" type="line"/>
    </contour>
  </outline>
</glyph>
<glyph name="G" format="2">
  <advance width="888"/>
  <unicode hex="0047"/>
  <outline>
    <contour>
      <point x="442" y="306" type="line"/>
      <point x="619" y="306" type="line"/>
      <point x="619" y="216" type="line"/>
      <point x="729" y="0" type="line"/>
      <point x="855" y="0" type="line"/>
      <point x="855" y="411" type="line"/>
      <point x="442" y="411" type="line"/>
    </contour>
    <contour>
      <point x="569" y="377" type="line"/>
      <point x="566" y="285"/>
      <point x="533" y="254"/>
      <point x="457" y="254" type="curve" smooth="yes"/>
      <point x="441" y="254" type="line" smooth="yes"/>
      <point x="380" y="254"/>
      <point x="355" y="298"/>
      <point x="355" y="403" type="curve" smooth="yes"/>
      <point x="355" y="504"/>
      <point x="383" y="546"/>
      <point x="454" y="546" type="curve" smooth="yes"/>
      <point x="471" y="546" type="line" smooth="yes"/>
      <point x="537" y="546"/>
      <point x="566" y="518"/>
      <point x="569" y="430" type="curve"/>
      <point x="846" y="460" type="line"/>
      <point x="825" y="697"/>
      <point x="685" y="810"/>
      <point x="470" y="810" type="curve" smooth="yes"/>
      <point x="427" y="810" type="line" smooth="yes"/>
      <point x="178" y="810"/>
      <point x="22" y="679"/>
      <point x="22" y="403" type="curve" smooth="yes"/>
      <point x="22" y="124"/>
      <point x="178" y="-10"/>
      <point x="427" y="-10" type="curve" smooth="yes"/>
      <point x="452" y="-10" type="line" smooth="yes"/>
      <point x="667" y="-10"/>
      <point x="808" y="107"/>
      <point x="828" y="348" type="curve"/>
    </contour>
  </outline>
</glyph>
<glyph name="H" format="2">
  <advance width="811"/>
  <unicode hex="0048"/>
  <outline>
    <contour>
      <point x="33" y="0" type="line"/>
      <point x="363" y="0" type="line"/>
      <point x="363" y="800" type="line"/>
      <point x="33" y="800" type="line"/>
    </contour>
    <contour>
      <point x="149" y="261" type="line"/>
      <point x="662" y="261" type="line"/>
      <point x="662" y="521" type="line"/>
      <point x="149" y="521" type="line"/>
    </contour>
    <contour>
      <point x="448" y="0" type="line"/>
      <point x="778" y="0" type="line"/>
      <point x="778" y="800" type="line"/>
      <point x="448" y="800" type="line"/>
    </contour>
  </outline>
</glyph>
<glyph name="I" format="2">
  <advance width="606"/>
  <unicode hex="0049"/>
  <outline>
    <contour>
      <point x="138" y="0" type="line"/>
      <point x="468" y="0" type="line"/>
      <point x="468" y="800" type="line"/>
      <point x="138" y="800" type="line"/>
    </contour>
    <contour>
      <point x="33" y="521" type="line"/>
      <point x="573" y="521" type="line"/>
      <point x="573" y="800" type="line"/>
      <point x="33" y="800" type="line"/>
    </contour>
    <contour>
      <point x="33" y="0" type="line"/>
      <point x="573" y="0" type="line"/>
      <point x="573" y="279" type="line"/>
      <point x="33" y="279" type="line"/>
    </contour>
  </outline>
</glyph>
<glyph name="J" format="2">
  <advance width="681"/>
  <unicode hex="004A"/>
  <outline>
    <contour>
      <point x="226" y="-10" type="curve" smooth="yes"/>
      <point x="489" y="-10"/>
      <point x="648" y="108"/>
      <point x="648" y="352" type="curve" smooth="yes"/>
      <point x="648" y="800" type="line"/>
      <point x="315" y="800" type="line"/>
      <point x="315" y="414" type="line" smooth="yes"/>
      <point x="315" y="316"/>
      <point x="274" y="275"/>
      <point x="194" y="275" type="curve" smooth="yes"/>
      <point x="157" y="275"/>
      <point x="122" y="278"/>
      <point x="82" y="288" type="curve"/>
      <point x="33" y="18" type="line"/>
      <point x="89" y="-1"/>
      <point x="154" y="-10"/>
    </contour>
  </outline>
</glyph>
<glyph name="K" format="2">
  <advance width="870"/>
  <unicode hex="004B"/>
  <outline>
    <contour>
      <point x="33" y="0" type="line"/>
      <point x="363" y="0" type="line"/>
      <point x="363" y="800" type="line"/>
      <point x="33" y="800" type="line"/>
    </contour>
    <contour>
      <point x="324" y="312" type="line"/>
      <point x="375" y="312" type="line"/>
      <point x="489" y="0" type="line"/>
      <point x="860" y="0" type="line"/>
      <point x="667" y="533" type="line"/>
      <point x="387" y="452" type="line"/>
      <point x="324" y="452" type="line"/>
    </contour>
    <contour>
      <point x="376" y="426" type="line"/>
      <point x="620" y="318" type="line"/>
      <point x="853" y="800" type="line"/>
      <point x="506" y="800" type="line"/>
    </contour>
  </outline>
</glyph>
<glyph name="L" format="2">
  <advance width="602"/>
  <unicode hex="004C"/>
  <outline>
    <contour>
      <point x="33" y="0" type="line"/>
      <point x="363" y="0" type="line"/>
      <point x="363" y="800" type="line"/>
      <point x="33" y="800" type="line"/>
    </contour>
    <contour>
      <point x="132" y="0" type="line"/>
      <point x="582" y="0" type="line"/>
      <point x="582" y="253" type="line"/>
      <point x="132" y="253" type="line"/>
    </contour>
  </outline>
</glyph>
<glyph name="M" format="2">
  <advance width="879"/>
  <unicode hex="004D"/>
  <outline>
    <contour>
      <point x="33" y="0" type="line"/>
      <point x="290" y="0" type="line"/>
      <point x="290" y="800" type="line"/>
      <point x="33" y="800" type="line"/>
    </contour>
    <contour>
      <point x="846" y="0" type="line"/>
      <point x="846" y="800" type="line"/>
      <point x="589" y="800" type="line"/>
      <point x="589" y="0" type="line"/>
    </contour>
    <contour>
      <point x="723" y="426" type="line"/>
      <point x="589" y="800" type="line"/>
      <point x="425" y="551" type="line"/>
      <point x="454" y="551" type="line"/>
      <point x="290" y="800" type="line"/>
      <point x="156" y="426" type="line"/>
      <point x="395" y="120" type="line"/>
      <point x="484" y="120" type="line"/>
    </contour>
  </outline>
</glyph>
<glyph name="N" format="2">
  <advance width="808"/>
  <unicode hex="004E"/>
  <outline>
    <contour>
      <point x="33" y="0" type="line"/>
      <point x="290" y="0" type="line"/>
      <point x="290" y="800" type="line"/>
      <point x="33" y="800" type="line"/>
    </contour>
    <contour>
      <point x="116" y="513" type="line"/>
      <point x="518" y="0" type="line"/>
      <point x="692" y="287" type="line"/>
      <point x="290" y="800" type="line"/>
    </contour>
    <contour>
      <point x="518" y="0" type="line"/>
      <point x="776" y="0" type="line"/>
      <point x="776" y="800" type="line"/>
      <point x="518" y="800" type="line"/>
    </contour>
  </outline>
</glyph>
<glyph name="O" format="2">
  <advance width="898"/>
  <unicode hex="004F"/>
  <outline>
    <contour>
      <point x="427" y="-10" type="curve" smooth="yes"/>
      <point x="470" y="-10" type="line" smooth="yes"/>
      <point x="718" y="-10"/>
      <point x="876" y="124"/>
      <point x="876" y="403" type="curve" smooth="yes"/>
      <point x="876" y="679"/>
      <point x="718" y="810"/>
      <point x="470" y="810" type="curve" smooth="yes"/>
      <point x="427" y="810" type="line" smooth="yes"/>
      <point x="178" y="810"/>
      <point x="22" y="679"/>
      <point x="22" y="403" type="curve" smooth="yes"/>
      <point x="22" y="124"/>
      <point x="178" y="-10"/>
    </contour>
    <contour>
      <point x="441" y="254" type="line" smooth="yes"/>
      <point x="380" y="254"/>
      <point x="355" y="298"/>
      <point x="355" y="403" type="curve" smooth="yes"/>
      <point x="355" y="504"/>
      <point x="380" y="546"/>
      <point x="441" y="546" type="curve" smooth="yes"/>
      <point x="457" y="546" type="line" smooth="yes"/>
      <point x="518" y="546"/>
      <point x="543" y="504"/>
      <point x="543" y="403" type="curve" smooth="yes"/>
      <point x="543" y="298"/>
      <point x="518" y="254"/>
      <point x="457" y="254" type="curve" smooth="yes"/>
    </contour>
  </outline>
</glyph>
<glyph name="P" format="2">
  <advance width="761"/>
  <unicode hex="0050"/>
  <outline>
    <contour>
      <point x="33" y="0" type="line"/>
      <point x="363" y="0" type="line"/>
      <point x="363" y="800" type="line"/>
      <point x="33" y="800" type="line"/>
    </contour>
    <contour>
      <point x="283" y="544" type="line"/>
      <point x="392" y="544" type="line" smooth="yes"/>
      <point x="425" y="544"/>
      <point x="439" y="532"/>
      <point x="439" y="484" type="curve" smooth="yes"/>
      <point x="439" y="429"/>
      <point x="425" y="421"/>
      <point x="392" y="421" type="curve" smooth="yes"/>
      <point x="283" y="421" type="line"/>
      <point x="283" y="164" type="line"/>
      <point x="410" y="164" type="line" smooth="yes"/>
      <point x="657" y="164"/>
      <point x="741" y="269"/>
      <point x="741" y="484" type="curve" smooth="yes"/>
      <point x="741" y="696"/>
      <point x="657" y="800"/>
      <point x="411" y="800" type="curve" smooth="yes"/>
      <point x="283" y="800" type="line"/>
    </contour>
  </outline>
</glyph>
<glyph name="Q" format="2">
  <advance width="898"/>
  <unicode hex="0051"/>
  <outline>
    <contour>
      <point x="425" y="-130" type="line"/>
      <point x="746" y="-130" type="line"/>
      <point x="633" y="170" type="line"/>
      <point x="336" y="170" type="line"/>
    </contour>
    <component base="O"/>
  </outline>
</glyph>
<glyph name="R" format="2">
  <advance width="770"/>
  <unicode hex="0052"/>
  <outline>
    <contour>
      <point x="422" y="0" type="line"/>
      <point x="753" y="0" type="line"/>
      <point x="718" y="198" type="line" smooth="yes"/>
      <point x="705" y="255"/>
      <point x="665" y="295"/>
      <point x="594" y="295" type="curve"/>
      <point x="393" y="295" type="line"/>
    </contour>
    <contour>
      <point x="33" y="0" type="line"/>
      <point x="363" y="0" type="line"/>
      <point x="363" y="800" type="line"/>
      <point x="33" y="800" type="line"/>
    </contour>
    <contour>
      <point x="283" y="544" type="line"/>
      <point x="401" y="544" type="line" smooth="yes"/>
      <point x="434" y="544"/>
      <point x="448" y="532"/>
      <point x="448" y="484" type="curve" smooth="yes"/>
      <point x="448" y="429"/>
      <point x="434" y="421"/>
      <point x="401" y="421" type="curve" smooth="yes"/>
      <point x="283" y="421" type="line"/>
      <point x="283" y="225" type="line"/>
      <point x="428" y="225" type="line" smooth="yes"/>
      <point x="657" y="225"/>
      <point x="750" y="320"/>
      <point x="750" y="514" type="curve" smooth="yes"/>
      <point x="750" y="707"/>
      <point x="648" y="800"/>
      <point x="418" y="800" type="curve" smooth="yes"/>
      <point x="283" y="800" type="line"/>
    </contour>
  </outline>
</glyph>
<glyph name="S" format="2">
  <advance width="751"/>
  <unicode hex="0053"/>
  <outline>
    <contour>
      <point x="730" y="253" type="curve" smooth="yes"/>
      <point x="730" y="462"/>
      <point x="619" y="520"/>
      <point x="452" y="531" type="curve" smooth="yes"/>
      <point x="385" y="535" type="line" smooth="yes"/>
      <point x="304" y="541"/>
      <point x="297" y="542"/>
      <point x="297" y="552" type="curve" smooth="yes"/>
      <point x="297" y="563"/>
      <point x="312" y="567"/>
      <point x="364" y="567" type="curve" smooth="yes"/>
      <point x="432" y="567" type="line" smooth="yes"/>
      <point x="520" y="567"/>
      <point x="608" y="558"/>
      <point x="673" y="548" type="curve"/>
      <point x="709" y="780" type="line"/>
      <point x="642" y="794"/>
      <point x="526" y="810"/>
      <point x="464" y="810" type="curve" smooth="yes"/>
      <point x="412" y="810" type="line" smooth="yes"/>
      <point x="154" y="810"/>
      <point x="33" y="707"/>
      <point x="33" y="529" type="curve" smooth="yes"/>
      <point x="33" y="343"/>
      <point x="160" y="282"/>
      <point x="312" y="269" type="curve" smooth="yes"/>
      <point x="377" y="264" type="line" smooth="yes"/>
      <point x="449" y="257"/>
      <point x="463" y="259"/>
      <point x="463" y="246" type="curve" smooth="yes"/>
      <point x="463" y="238"/>
      <point x="448" y="234"/>
      <point x="395" y="234" type="curve" smooth="yes"/>
      <point x="330" y="234" type="line" smooth="yes"/>
      <point x="227" y="234"/>
      <point x="131" y="242"/>
      <point x="58" y="255" type="curve"/>
      <point x="22" y="20" type="line"/>
      <point x="98" y="5"/>
      <point x="228" y="-10"/>
      <point x="299" y="-10" type="curve" smooth="yes"/>
      <point x="353" y="-10" type="line" smooth="yes"/>
      <point x="651" y="-10"/>
      <point x="730" y="108"/>
    </contour>
  </outline>
</glyph>
<glyph name="T" format="2">
  <advance width="684"/>
  <unicode hex="0054"/>
  <outline>
    <contour>
      <point x="177" y="0" type="line"/>
      <point x="507" y="0" type="line"/>
      <point x="507" y="800" type="line"/>
      <point x="177" y="800" type="line"/>
    </contour>
    <contour>
      <point x="20" y="544" type="line"/>
      <point x="664" y="544" type="line"/>
      <point x="664" y="800" type="line"/>
      <point x="20" y="800" type="line"/>
    </contour>
  </outline>
</glyph>
<glyph name="U" format="2">
  <advance width="813"/>
  <unicode hex="0055"/>
  <outline>
    <contour>
      <point x="406" y="-10" type="curve" smooth="yes"/>
      <point x="667" y="-10"/>
      <point x="777" y="108"/>
      <point x="777" y="352" type="curve" smooth="yes"/>
      <point x="777" y="800" type="line"/>
      <point x="446" y="800" type="line"/>
      <point x="446" y="307" type="line" smooth="yes"/>
      <point x="446" y="271"/>
      <point x="434" y="257"/>
      <point x="406" y="257" type="curve" smooth="yes"/>
      <point x="379" y="257"/>
      <point x="367" y="271"/>
      <point x="367" y="307" type="curve" smooth="yes"/>
      <point x="367" y="800" type="line"/>
      <point x="36" y="800" type="line"/>
      <point x="36" y="352" type="line" smooth="yes"/>
      <point x="36" y="108"/>
      <point x="144" y="-10"/>
    </contour>
  </outline>
</glyph>
<glyph name="V" format="2">
  <advance width="798"/>
  <unicode hex="0056"/>
  <outline>
    <contour>
      <point x="787" y="800" type="line"/>
      <point x="529" y="800" type="line"/>
      <point x="420" y="0" type="line"/>
      <point x="646" y="0" type="line"/>
    </contour>
    <contour>
      <point x="364" y="800" type="line"/>
      <point x="11" y="800" type="line"/>
      <point x="152" y="0" type="line"/>
      <point x="485" y="0" type="line"/>
    </contour>
    <contour>
      <point x="571" y="260" type="line"/>
      <point x="286" y="260" type="line"/>
      <point x="286" y="0" type="line"/>
      <point x="571" y="0" type="line"/>
    </contour>
  </outline>
</glyph>
<glyph name="W" format="2">
  <advance width="935"/>
  <unicode hex="0057"/>
  <outline>
    <contour>
      <point x="924" y="800" type="line"/>
      <point x="652" y="800" type="line"/>
      <point x="602" y="270" type="line"/>
      <point x="642" y="270" type="line"/>
      <point x="589" y="800" type="line"/>
      <point x="377" y="800" type="line"/>
      <point x="330" y="270" type="line"/>
      <point x="370" y="270" type="line"/>
      <point x="314" y="800" type="line"/>
      <point x="11" y="800" type="line"/>
      <point x="118" y="0" type="line"/>
      <point x="422" y="0" type="line"/>
      <point x="470" y="415" type="line"/>
      <point x="426" y="415" type="line"/>
      <point x="486" y="0" type="line"/>
      <point x="820" y="0" type="line"/>
    </contour>
  </outline>
</glyph>
<glyph name="X" format="2">
  <advance width="803"/>
  <unicode hex="0058"/>
  <outline>
    <contour>
      <point x="401" y="0" type="line"/>
      <point x="792" y="0" type="line"/>
      <point x="532" y="474" type="line"/>
      <point x="402" y="800" type="line"/>
      <point x="11" y="800" type="line"/>
      <point x="268" y="352" type="line"/>
    </contour>
    <contour>
      <point x="11" y="0" type="line"/>
      <point x="263" y="0" type="line"/>
      <point x="360" y="313" type="line"/>
      <point x="582" y="344" type="line"/>
      <point x="792" y="800" type="line"/>
      <point x="540" y="800" type="line"/>
      <point x="438" y="535" type="line"/>
      <point x="219" y="490" type="line"/>
    </contour>
  </outline>
</glyph>
<glyph name="Y" format="2">
  <advance width="787"/>
  <unicode hex="0059"/>
  <outline>
    <contour>
      <point x="776" y="800" type="line"/>
      <point x="534" y="800" type="line"/>
      <point x="350" y="201" type="line"/>
      <point x="558" y="201" type="line"/>
    </contour>
    <contour>
      <point x="368" y="800" type="line"/>
      <point x="11" y="800" type="line"/>
      <point x="228" y="201" type="line"/>
      <point x="528" y="201" type="line"/>
    </contour>
    <contour>
      <point x="558" y="281" type="line"/>
      <point x="228" y="281" type="line"/>
      <point x="228" y="0" type="line"/>
      <point x="558" y="0" type="line"/>
    </contour>
  </outline>
</glyph>
<glyph name="Z" format="2">
  <advance width="704"/>
  <unicode hex="005A"/>
  <outline>
    <contour>
      <point x="33" y="253" type="line"/>
      <point x="400" y="225" type="line"/>
      <point x="671" y="547" type="line"/>
      <point x="304" y="575" type="line"/>
    </contour>
    <contour>
      <point x="33" y="547" type="line"/>
      <point x="671" y="547" type="line"/>
      <point x="671" y="800" type="line"/>
      <point x="33" y="800" type="line"/>
    </contour>
    <contour>
      <point x="33" y="0" type="line"/>
      <point x="671" y="0" type="line"/>
      <point x="671" y="253" type="line"/>
      <point x="33" y="253" type="line"/>
    </contour>
  </outline>
</glyph>
